<svg width="152" height="47" viewBox="0 0 152 47" fill="none" xmlns="http://www.w3.org/2000/svg">
<rect y="0.166992" width="151.349" height="46.6659" rx="5.04496" fill="black"/>
<path fill-rule="evenodd" clip-rule="evenodd" d="M30.1862 23.8444C30.2117 21.8633 31.2503 20.0333 32.9381 18.9957C31.8685 17.4681 30.1412 16.5343 28.2773 16.476C26.3164 16.2702 24.4153 17.6494 23.416 17.6494C22.3974 17.6494 20.8588 16.4965 19.2021 16.5305C17.0222 16.601 15.0393 17.8103 13.9787 19.7161C11.7202 23.6263 13.4049 29.373 15.5683 32.5337C16.6507 34.0814 17.9157 35.8102 19.571 35.7489C21.1908 35.6817 21.7957 34.716 23.7509 34.716C25.688 34.716 26.2556 35.7489 27.9444 35.7099C29.6825 35.6817 30.7776 34.1553 31.822 32.593C32.5997 31.4902 33.1982 30.2713 33.5952 28.9816C31.5309 28.1085 30.1886 26.0857 30.1862 23.8444Z" fill="white"/>
<path fill-rule="evenodd" clip-rule="evenodd" d="M26.9963 14.3975C27.944 13.2599 28.4109 11.7976 28.2978 10.3213C26.85 10.4734 25.5126 11.1653 24.5521 12.2593C23.6037 13.3387 23.1232 14.7508 23.2165 16.1847C24.6838 16.1998 26.0769 15.5411 26.9963 14.3975Z" fill="white"/>
<path d="M48.6239 15.3926H50.2845C50.3966 15.3926 50.5367 15.3856 50.7049 15.3716C50.873 15.3506 51.0517 15.3085 51.2409 15.2455C51.4301 15.1754 51.6157 15.0773 51.7979 14.9512C51.9871 14.8251 52.1552 14.6534 52.3024 14.4362C52.4495 14.219 52.5686 13.9492 52.6597 13.6269C52.7578 13.2976 52.8069 12.9017 52.8069 12.4393C52.8069 11.9909 52.7613 11.5915 52.6702 11.2412C52.5861 10.8838 52.4425 10.5825 52.2393 10.3373C52.0431 10.0851 51.7874 9.89588 51.4721 9.76976C51.1568 9.63664 50.7679 9.57008 50.3055 9.57008H48.6239V15.3926ZM47.6254 8.72928H50.2004C51.3565 8.72928 52.2463 9.02356 52.8699 9.61211C53.4935 10.2007 53.8053 11.0975 53.8053 12.3027C53.8053 12.9333 53.7352 13.4938 53.5951 13.9843C53.455 14.4677 53.2378 14.8776 52.9435 15.2139C52.6492 15.5432 52.2744 15.7955 51.8189 15.9706C51.3635 16.1458 50.824 16.2334 50.2004 16.2334H47.6254V8.72928ZM55.7402 13.5218C55.7402 13.8511 55.7822 14.1454 55.8663 14.4047C55.9574 14.6569 56.08 14.8706 56.2342 15.0458C56.3883 15.2139 56.567 15.3436 56.7702 15.4346C56.9804 15.5257 57.2011 15.5713 57.4323 15.5713C57.6635 15.5713 57.8807 15.5257 58.0839 15.4346C58.2941 15.3436 58.4763 15.2139 58.6305 15.0458C58.7846 14.8706 58.9037 14.6569 58.9878 14.4047C59.0789 14.1454 59.1244 13.8511 59.1244 13.5218C59.1244 13.1925 59.0789 12.9017 58.9878 12.6495C58.9037 12.3903 58.7846 12.173 58.6305 11.9979C58.4763 11.8227 58.2941 11.6896 58.0839 11.5985C57.8807 11.5074 57.6635 11.4619 57.4323 11.4619C57.2011 11.4619 56.9804 11.5074 56.7702 11.5985C56.567 11.6896 56.3883 11.8227 56.2342 11.9979C56.08 12.173 55.9574 12.3903 55.8663 12.6495C55.7822 12.9017 55.7402 13.1925 55.7402 13.5218ZM54.7943 13.5218C54.7943 13.1224 54.8504 12.7511 54.9625 12.4078C55.0746 12.0574 55.2427 11.7561 55.4669 11.5039C55.6912 11.2447 55.9679 11.0415 56.2972 10.8943C56.6266 10.7472 57.0049 10.6736 57.4323 10.6736C57.8667 10.6736 58.2451 10.7472 58.5674 10.8943C58.8967 11.0415 59.1735 11.2447 59.3977 11.5039C59.6219 11.7561 59.7901 12.0574 59.9022 12.4078C60.0143 12.7511 60.0703 13.1224 60.0703 13.5218C60.0703 13.9212 60.0143 14.2926 59.9022 14.6359C59.7901 14.9792 59.6219 15.2805 59.3977 15.5397C59.1735 15.792 58.8967 15.9917 58.5674 16.1388C58.2451 16.2789 57.8667 16.349 57.4323 16.349C57.0049 16.349 56.6266 16.2789 56.2972 16.1388C55.9679 15.9917 55.6912 15.792 55.4669 15.5397C55.2427 15.2805 55.0746 14.9792 54.9625 14.6359C54.8504 14.2926 54.7943 13.9212 54.7943 13.5218ZM66.7149 16.2334H65.769L64.6655 11.9138H64.6445L63.5514 16.2334H62.5845L60.8398 10.7997H61.8278L63.0574 15.2455H63.0785L64.1715 10.7997H65.1489L66.284 15.2455H66.305L67.5242 10.7997H68.4491L66.7149 16.2334ZM69.5086 10.7997H70.3494V11.6616H70.3704C70.7418 11.0029 71.3303 10.6736 72.1361 10.6736C72.4934 10.6736 72.7912 10.7227 73.0294 10.8208C73.2677 10.9189 73.4604 11.0555 73.6075 11.2307C73.7546 11.4058 73.8562 11.616 73.9123 11.8612C73.9753 12.0995 74.0069 12.3657 74.0069 12.66V16.2334H73.1135V12.5549C73.1135 12.2186 73.0154 11.9523 72.8192 11.7561C72.6231 11.56 72.3533 11.4619 72.01 11.4619C71.7367 11.4619 71.4985 11.5039 71.2953 11.588C71.0991 11.6721 70.9345 11.7912 70.8013 11.9453C70.6682 12.0995 70.5666 12.2816 70.4965 12.4918C70.4335 12.695 70.402 12.9193 70.402 13.1645V16.2334H69.5086V10.7997ZM75.6114 8.72928H76.5047V16.2334H75.6114V8.72928ZM78.7505 13.5218C78.7505 13.8511 78.7925 14.1454 78.8766 14.4047C78.9677 14.6569 79.0903 14.8706 79.2445 15.0458C79.3986 15.2139 79.5773 15.3436 79.7805 15.4346C79.9907 15.5257 80.2114 15.5713 80.4426 15.5713C80.6738 15.5713 80.891 15.5257 81.0942 15.4346C81.3044 15.3436 81.4866 15.2139 81.6407 15.0458C81.7949 14.8706 81.914 14.6569 81.9981 14.4047C82.0892 14.1454 82.1347 13.8511 82.1347 13.5218C82.1347 13.1925 82.0892 12.9017 81.9981 12.6495C81.914 12.3903 81.7949 12.173 81.6407 11.9979C81.4866 11.8227 81.3044 11.6896 81.0942 11.5985C80.891 11.5074 80.6738 11.4619 80.4426 11.4619C80.2114 11.4619 79.9907 11.5074 79.7805 11.5985C79.5773 11.6896 79.3986 11.8227 79.2445 11.9979C79.0903 12.173 78.9677 12.3903 78.8766 12.6495C78.7925 12.9017 78.7505 13.1925 78.7505 13.5218ZM77.8046 13.5218C77.8046 13.1224 77.8606 12.7511 77.9727 12.4078C78.0849 12.0574 78.253 11.7561 78.4772 11.5039C78.7014 11.2447 78.9782 11.0415 79.3075 10.8943C79.6368 10.7472 80.0152 10.6736 80.4426 10.6736C80.877 10.6736 81.2554 10.7472 81.5777 10.8943C81.907 11.0415 82.1837 11.2447 82.408 11.5039C82.6322 11.7561 82.8003 12.0574 82.9124 12.4078C83.0245 12.7511 83.0806 13.1224 83.0806 13.5218C83.0806 13.9212 83.0245 14.2926 82.9124 14.6359C82.8003 14.9792 82.6322 15.2805 82.408 15.5397C82.1837 15.792 81.907 15.9917 81.5777 16.1388C81.2554 16.2789 80.877 16.349 80.4426 16.349C80.0152 16.349 79.6368 16.2789 79.3075 16.1388C78.9782 15.9917 78.7014 15.792 78.4772 15.5397C78.253 15.2805 78.0849 14.9792 77.9727 14.6359C77.8606 14.2926 77.8046 13.9212 77.8046 13.5218ZM89.1577 16.2124C89.0035 16.3035 88.7898 16.349 88.5165 16.349C88.2853 16.349 88.0997 16.2859 87.9595 16.1598C87.8264 16.0267 87.7598 15.813 87.7598 15.5187C87.5146 15.813 87.2273 16.0267 86.898 16.1598C86.5757 16.2859 86.2254 16.349 85.847 16.349C85.6018 16.349 85.3671 16.321 85.1428 16.2649C84.9256 16.2089 84.7365 16.1213 84.5753 16.0022C84.4142 15.8831 84.2845 15.7289 84.1864 15.5397C84.0954 15.3436 84.0498 15.1088 84.0498 14.8356C84.0498 14.5273 84.1024 14.275 84.2075 14.0789C84.3126 13.8827 84.4492 13.725 84.6173 13.6059C84.7925 13.4798 84.9887 13.3852 85.2059 13.3221C85.4301 13.2591 85.6578 13.2065 85.8891 13.1645C86.1343 13.1154 86.3655 13.0804 86.5827 13.0594C86.8069 13.0314 87.0031 12.9963 87.1713 12.9543C87.3394 12.9052 87.4726 12.8387 87.5706 12.7546C87.6687 12.6635 87.7178 12.5339 87.7178 12.3657C87.7178 12.1695 87.6793 12.0119 87.6022 11.8928C87.5321 11.7737 87.4375 11.6826 87.3184 11.6195C87.2063 11.5565 87.0767 11.5144 86.9295 11.4934C86.7894 11.4724 86.6493 11.4619 86.5091 11.4619C86.1308 11.4619 85.8155 11.5354 85.5632 11.6826C85.311 11.8227 85.1744 12.0925 85.1534 12.4918H84.26C84.274 12.1555 84.3441 11.8718 84.4702 11.6405C84.5963 11.4093 84.7645 11.2236 84.9747 11.0835C85.1849 10.9364 85.4231 10.8313 85.6894 10.7682C85.9626 10.7052 86.2534 10.6736 86.5617 10.6736C86.8069 10.6736 87.0487 10.6911 87.2869 10.7262C87.5321 10.7612 87.7528 10.8348 87.949 10.9469C88.1452 11.052 88.3028 11.2026 88.422 11.3988C88.5411 11.595 88.6006 11.8507 88.6006 12.166V14.9617C88.6006 15.1719 88.6111 15.326 88.6322 15.4241C88.6602 15.5222 88.7443 15.5713 88.8844 15.5713C88.9615 15.5713 89.0526 15.5538 89.1577 15.5187V16.2124ZM87.7073 13.4272C87.5952 13.5113 87.448 13.5744 87.2659 13.6164C87.0837 13.6514 86.891 13.683 86.6878 13.711C86.4916 13.732 86.2919 13.7601 86.0887 13.7951C85.8855 13.8231 85.7034 13.8722 85.5422 13.9422C85.3811 14.0123 85.2479 14.1139 85.1428 14.247C85.0448 14.3731 84.9957 14.5483 84.9957 14.7725C84.9957 14.9197 85.0237 15.0458 85.0798 15.1509C85.1428 15.249 85.2199 15.3295 85.311 15.3926C85.4091 15.4557 85.5212 15.5012 85.6473 15.5292C85.7734 15.5573 85.9066 15.5713 86.0467 15.5713C86.341 15.5713 86.5932 15.5327 86.8034 15.4557C87.0136 15.3716 87.1853 15.27 87.3184 15.1509C87.4515 15.0248 87.5496 14.8916 87.6127 14.7515C87.6757 14.6044 87.7073 14.4677 87.7073 14.3416V13.4272ZM90.8509 13.5639C90.8509 13.8161 90.8824 14.0648 90.9455 14.3101C91.0156 14.5483 91.1172 14.762 91.2503 14.9512C91.3904 15.1404 91.5656 15.291 91.7758 15.4031C91.993 15.5152 92.2452 15.5713 92.5325 15.5713C92.8338 15.5713 93.0895 15.5117 93.2997 15.3926C93.5099 15.2735 93.6816 15.1193 93.8147 14.9302C93.9478 14.734 94.0424 14.5133 94.0985 14.268C94.1616 14.0228 94.1931 13.7741 94.1931 13.5218C94.1931 13.2556 94.1616 12.9998 94.0985 12.7546C94.0354 12.5024 93.9338 12.2816 93.7937 12.0925C93.6606 11.9033 93.4854 11.7526 93.2682 11.6405C93.051 11.5214 92.7882 11.4619 92.48 11.4619C92.1787 11.4619 91.9229 11.5214 91.7127 11.6405C91.5025 11.7597 91.3344 11.9173 91.2082 12.1135C91.0821 12.3097 90.991 12.5339 90.935 12.7861C90.8789 13.0384 90.8509 13.2976 90.8509 13.5639ZM95.0549 16.2334H94.1616V15.4977H94.1405C93.9934 15.799 93.7622 16.0162 93.4469 16.1493C93.1316 16.2824 92.7847 16.349 92.4064 16.349C91.986 16.349 91.6181 16.2719 91.3028 16.1178C90.9945 15.9636 90.7353 15.7569 90.5251 15.4977C90.3219 15.2385 90.1678 14.9372 90.0627 14.5938C89.9576 14.2505 89.905 13.8862 89.905 13.5008C89.905 13.1154 89.9541 12.7511 90.0522 12.4078C90.1573 12.0644 90.3114 11.7667 90.5146 11.5144C90.7248 11.2552 90.984 11.052 91.2923 10.9048C91.6076 10.7507 91.972 10.6736 92.3854 10.6736C92.5255 10.6736 92.6761 10.6876 92.8373 10.7157C92.9984 10.7437 93.1596 10.7927 93.3208 10.8628C93.4819 10.9259 93.6325 11.0134 93.7727 11.1256C93.9198 11.2307 94.0424 11.3638 94.1405 11.5249H94.1616V8.72928H95.0549V16.2334ZM100.426 13.5218C100.426 13.8511 100.469 14.1454 100.553 14.4047C100.644 14.6569 100.766 14.8706 100.92 15.0458C101.075 15.2139 101.253 15.3436 101.456 15.4346C101.667 15.5257 101.887 15.5713 102.119 15.5713C102.35 15.5713 102.567 15.5257 102.77 15.4346C102.98 15.3436 103.163 15.2139 103.317 15.0458C103.471 14.8706 103.59 14.6569 103.674 14.4047C103.765 14.1454 103.811 13.8511 103.811 13.5218C103.811 13.1925 103.765 12.9017 103.674 12.6495C103.59 12.3903 103.471 12.173 103.317 11.9979C103.163 11.8227 102.98 11.6896 102.77 11.5985C102.567 11.5074 102.35 11.4619 102.119 11.4619C101.887 11.4619 101.667 11.5074 101.456 11.5985C101.253 11.6896 101.075 11.8227 100.92 11.9979C100.766 12.173 100.644 12.3903 100.553 12.6495C100.469 12.9017 100.426 13.1925 100.426 13.5218ZM99.4806 13.5218C99.4806 13.1224 99.5366 12.7511 99.6487 12.4078C99.7608 12.0574 99.929 11.7561 100.153 11.5039C100.377 11.2447 100.654 11.0415 100.984 10.8943C101.313 10.7472 101.691 10.6736 102.119 10.6736C102.553 10.6736 102.931 10.7472 103.254 10.8943C103.583 11.0415 103.86 11.2447 104.084 11.5039C104.308 11.7561 104.476 12.0574 104.588 12.4078C104.701 12.7511 104.757 13.1224 104.757 13.5218C104.757 13.9212 104.701 14.2926 104.588 14.6359C104.476 14.9792 104.308 15.2805 104.084 15.5397C103.86 15.792 103.583 15.9917 103.254 16.1388C102.931 16.2789 102.553 16.349 102.119 16.349C101.691 16.349 101.313 16.2789 100.984 16.1388C100.654 15.9917 100.377 15.792 100.153 15.5397C99.929 15.2805 99.7608 14.9792 99.6487 14.6359C99.5366 14.2926 99.4806 13.9212 99.4806 13.5218ZM106.02 10.7997H106.861V11.6616H106.882C107.253 11.0029 107.842 10.6736 108.648 10.6736C109.005 10.6736 109.303 10.7227 109.541 10.8208C109.779 10.9189 109.972 11.0555 110.119 11.2307C110.266 11.4058 110.368 11.616 110.424 11.8612C110.487 12.0995 110.518 12.3657 110.518 12.66V16.2334H109.625V12.5549C109.625 12.2186 109.527 11.9523 109.331 11.7561C109.135 11.56 108.865 11.4619 108.521 11.4619C108.248 11.4619 108.01 11.5039 107.807 11.588C107.611 11.6721 107.446 11.7912 107.313 11.9453C107.18 12.0995 107.078 12.2816 107.008 12.4918C106.945 12.695 106.913 12.9193 106.913 13.1645V16.2334H106.02V10.7997ZM116.446 10.7997H117.528V11.588H116.446V14.9617C116.446 15.0668 116.453 15.1509 116.467 15.2139C116.488 15.277 116.523 15.326 116.572 15.3611C116.621 15.3961 116.688 15.4206 116.772 15.4346C116.863 15.4416 116.978 15.4452 117.118 15.4452H117.528V16.2334H116.845C116.614 16.2334 116.414 16.2194 116.246 16.1914C116.085 16.1563 115.952 16.0968 115.847 16.0127C115.749 15.9286 115.675 15.8095 115.626 15.6553C115.577 15.5012 115.552 15.298 115.552 15.0458V11.588H114.628V10.7997H115.552V9.1707H116.446V10.7997ZM118.731 8.72928H119.624V11.5985H119.645C119.715 11.4303 119.814 11.2902 119.94 11.1781C120.066 11.059 120.206 10.9644 120.36 10.8943C120.521 10.8173 120.686 10.7612 120.854 10.7262C121.029 10.6911 121.197 10.6736 121.358 10.6736C121.716 10.6736 122.014 10.7227 122.252 10.8208C122.49 10.9189 122.683 11.0555 122.83 11.2307C122.977 11.4058 123.079 11.616 123.135 11.8612C123.198 12.0995 123.229 12.3657 123.229 12.66V16.2334H122.336V12.5549C122.336 12.2186 122.238 11.9523 122.042 11.7561C121.845 11.56 121.576 11.4619 121.232 11.4619C120.959 11.4619 120.721 11.5039 120.518 11.588C120.322 11.6721 120.157 11.7912 120.024 11.9453C119.891 12.0995 119.789 12.2816 119.719 12.4918C119.656 12.695 119.624 12.9193 119.624 13.1645V16.2334H118.731V8.72928ZM128.554 12.9963C128.54 12.7861 128.491 12.5864 128.407 12.3973C128.33 12.2081 128.221 12.0469 128.081 11.9138C127.948 11.7737 127.787 11.6651 127.598 11.588C127.416 11.5039 127.213 11.4619 126.988 11.4619C126.757 11.4619 126.547 11.5039 126.358 11.588C126.176 11.6651 126.018 11.7737 125.885 11.9138C125.752 12.0539 125.647 12.2186 125.569 12.4078C125.492 12.5899 125.447 12.7861 125.433 12.9963H128.554ZM129.416 14.5098C129.297 15.1193 129.034 15.5783 128.628 15.8866C128.221 16.1949 127.71 16.349 127.093 16.349C126.659 16.349 126.281 16.2789 125.958 16.1388C125.643 15.9987 125.377 15.8025 125.16 15.5503C124.942 15.298 124.778 14.9967 124.666 14.6464C124.561 14.2961 124.501 13.9142 124.487 13.5008C124.487 13.0874 124.55 12.7091 124.676 12.3657C124.802 12.0224 124.977 11.7246 125.202 11.4724C125.433 11.2201 125.703 11.024 126.011 10.8838C126.326 10.7437 126.67 10.6736 127.041 10.6736C127.524 10.6736 127.924 10.7752 128.239 10.9784C128.561 11.1746 128.817 11.4268 129.006 11.7351C129.202 12.0434 129.336 12.3797 129.406 12.7441C129.483 13.1084 129.514 13.4553 129.5 13.7846H125.433C125.426 14.0228 125.454 14.2505 125.517 14.4677C125.58 14.6779 125.682 14.8671 125.822 15.0353C125.962 15.1964 126.141 15.326 126.358 15.4241C126.575 15.5222 126.831 15.5713 127.125 15.5713C127.503 15.5713 127.812 15.4837 128.05 15.3085C128.295 15.1334 128.456 14.8671 128.533 14.5098H129.416Z" fill="white"/>
<path d="M66.5643 25.474C69.2476 25.474 71.0165 27.5951 71.0165 30.8715C71.0165 34.157 69.258 36.2679 66.6042 36.2679C65.2325 36.3397 63.9405 35.6212 63.2777 34.4181H63.2275V39.6549H61.0573V25.5846H63.1579V27.3431H63.1978C63.8901 26.1476 65.1836 25.4294 66.5643 25.474ZM78.201 25.474C80.8844 25.474 82.6531 27.5951 82.6531 30.8715C82.6531 34.157 80.8946 36.2679 78.2409 36.2679C76.8692 36.3397 75.5772 35.6212 74.9144 34.4181H74.8642V39.6549H72.694V25.5846H74.7946V27.3431H74.8345C75.5268 26.1476 76.8202 25.4294 78.201 25.474ZM93.7812 21.4141C96.8455 21.4141 98.9461 23.1327 99.0168 25.6347H96.8261C96.6949 24.1875 95.4987 23.314 93.7504 23.314C92.0022 23.314 90.8059 24.1978 90.8059 25.4842C90.8059 26.5094 91.57 27.1127 93.4391 27.5745L95.0368 27.9668C98.0121 28.6704 99.2483 29.8656 99.2483 31.9867C99.2483 34.6997 97.0872 36.3989 93.6501 36.3989C90.4341 36.3989 88.2628 34.7397 88.1225 32.1167L90.344 32.1168C90.5048 33.5549 91.9019 34.4991 93.8109 34.4991C95.6401 34.4991 96.9561 33.5548 96.9561 32.2582C96.9561 31.1326 96.1624 30.4586 94.283 29.9968L92.4036 29.544C89.7408 28.9008 88.5046 27.6555 88.5046 25.6347C88.5046 23.1327 90.685 21.4141 93.7812 21.4141ZM112.121 25.4546C115.187 25.4546 117.137 27.5449 117.137 30.8715C117.137 34.2072 115.197 36.2884 112.121 36.2884C109.047 36.2884 107.107 34.2072 107.107 30.8715C107.107 27.545 109.066 25.4546 112.121 25.4546ZM129.695 25.4546C132.62 25.4546 134.459 27.464 134.459 30.6696V31.4132H126.992V31.5443C126.922 32.3315 127.194 33.1106 127.738 33.6836C128.283 34.2565 129.047 34.5681 129.836 34.539C130.889 34.6377 131.882 34.033 132.278 33.0519L134.339 33.052C134.047 34.9713 132.178 36.2884 129.786 36.2884C126.71 36.2884 124.801 34.2277 124.801 30.9217C124.801 27.6054 126.721 25.4546 129.695 25.4546ZM103.932 23.0825V25.5846H105.943V27.3032H103.932V33.1318C103.932 34.0373 104.335 34.4592 105.218 34.4592C105.457 34.4551 105.695 34.4383 105.932 34.409V36.1173C105.535 36.1916 105.131 36.2252 104.727 36.2177C102.586 36.2177 101.752 35.4137 101.752 33.3632V27.3032H100.214V25.5846H101.751V23.0825H103.932ZM54.4737 21.6559L59.7093 36.1573H57.3282L56.0019 32.2377H50.4743L49.1469 36.1573H46.8057L52.0413 21.6559H54.4737ZM123.589 25.4739C123.839 25.4731 124.089 25.5002 124.333 25.5549V27.5848C124.017 27.4884 123.688 27.4441 123.358 27.4537C122.72 27.4278 122.102 27.6821 121.667 28.1497C121.233 28.6174 121.024 29.2517 121.096 29.8862V36.1573H118.926V25.5846H120.996V27.3841H121.046C121.335 26.2257 122.396 25.4284 123.589 25.4739ZM112.121 27.2427C110.363 27.2427 109.318 28.5998 109.318 30.8715C109.318 33.1626 110.363 34.4991 112.121 34.4991C113.88 34.4991 114.926 33.1626 114.926 30.8715C114.926 28.5896 113.88 27.2427 112.121 27.2427ZM65.9918 27.3237C64.3337 27.3237 63.2184 28.7606 63.2184 30.8715C63.2184 33.0018 64.3337 34.4284 65.9918 34.4284C67.6796 34.4284 68.7858 33.0314 68.7858 30.8715C68.7858 28.731 67.6796 27.3237 65.9918 27.3237ZM77.6285 27.3237C75.9704 27.3237 74.8551 28.7606 74.8551 30.8715C74.8551 33.0018 75.9704 34.4284 77.6285 34.4284C79.3163 34.4284 80.4225 33.0314 80.4225 30.8715C80.4225 28.731 79.3163 27.3237 77.6285 27.3237ZM53.2684 24.0678H53.2079L51.0468 30.429H55.4283L53.2684 24.0678ZM129.695 27.2131C128.981 27.2088 128.295 27.4899 127.79 27.9938C127.284 28.4977 127.001 29.1826 127.002 29.8965H132.288C132.328 29.1892 132.07 28.4975 131.578 27.9882C131.086 27.4788 130.403 27.1979 129.695 27.2131Z" fill="white"/>
</svg>
