<svg width="152" height="47" viewBox="0 0 152 47" fill="none" xmlns="http://www.w3.org/2000/svg">
<rect x="0.651367" y="0.166992" width="151.349" height="46.6659" rx="5.04496" fill="black"/>
<path fill-rule="evenodd" clip-rule="evenodd" d="M11.7641 8.6251C11.4243 8.98477 11.2246 9.5418 11.2246 10.2647V36.0701C11.2246 36.793 11.4243 37.35 11.7641 37.7097L11.8505 37.7938L26.3064 23.3379V22.9969L11.8505 8.54102L11.7641 8.6251Z" fill="#00D7FE"/>
<mask id="mask0_3053_37844" style="mask-type:alpha" maskUnits="userSpaceOnUse" x="26" y="18" width="13" height="11">
<path d="M31.1227 28.1597L26.3057 23.3391V22.9981L31.1251 18.1787L36.9429 21.4835C38.5731 22.4107 38.5731 23.9265 36.9429 24.8525L31.2337 28.0966L31.1227 28.1597Z" fill="white"/>
</mask>
<g mask="url(#mask0_3053_37844)">
<path fill-rule="evenodd" clip-rule="evenodd" d="M31.1227 28.1597L26.3057 23.3391V22.9981L31.1251 18.1787L36.9429 21.4835C38.5731 22.4107 38.5731 23.9265 36.9429 24.8525L31.2337 28.0966L31.1227 28.1597Z" fill="url(#paint0_linear_3053_37844)"/>
</g>
<mask id="mask1_3053_37844" style="mask-type:alpha" maskUnits="userSpaceOnUse" x="11" y="23" width="21" height="16">
<path d="M31.234 28.094L26.306 23.166L11.7637 37.7083C12.302 38.277 13.1895 38.3471 14.1891 37.7795L31.234 28.094Z" fill="white"/>
</mask>
<g mask="url(#mask1_3053_37844)">
<path fill-rule="evenodd" clip-rule="evenodd" d="M31.234 28.094L26.306 23.166L11.7637 37.7083C12.302 38.277 13.1895 38.3471 14.1891 37.7795L31.234 28.094Z" fill="url(#paint1_linear_3053_37844)"/>
</g>
<mask id="mask2_3053_37844" style="mask-type:alpha" maskUnits="userSpaceOnUse" x="11" y="8" width="21" height="16">
<path d="M31.234 18.2398L14.1891 8.55423C13.1895 7.98669 12.302 8.05676 11.7637 8.62546L26.306 23.1678L31.234 18.2398Z" fill="white"/>
</mask>
<g mask="url(#mask2_3053_37844)">
<path fill-rule="evenodd" clip-rule="evenodd" d="M31.234 18.2398L14.1891 8.55423C13.1895 7.98669 12.302 8.05676 11.7637 8.62546L26.306 23.1678L31.234 18.2398Z" fill="url(#paint2_linear_3053_37844)"/>
</g>
<path fill-rule="evenodd" clip-rule="evenodd" d="M122.07 35.9572H124.25V21.3589H122.07V35.9572ZM141.697 26.6174L139.199 32.9467H139.125L136.532 26.6174H134.185L138.072 35.4633L135.856 40.3843H138.13L144.12 26.6174H141.697ZM129.34 34.299C128.625 34.299 127.63 33.9428 127.63 33.06C127.63 31.9331 128.87 31.501 129.94 31.501C130.899 31.501 131.348 31.7077 131.931 31.9891C131.762 33.3414 130.598 34.299 129.34 34.299ZM129.603 26.2986C128.025 26.2986 126.391 26.9934 125.715 28.5337L127.649 29.3406C128.062 28.5337 128.832 28.2698 129.64 28.2698C130.767 28.2698 131.912 28.9459 131.931 30.1487V30.2982C131.536 30.0728 130.692 29.7353 129.659 29.7353C127.574 29.7353 125.451 30.8809 125.451 33.0215C125.451 34.9751 127.161 36.234 129.076 36.234C130.541 36.234 131.348 35.5765 131.856 34.8058H131.931V35.9327H134.034V30.3367C134.034 27.7443 132.1 26.2986 129.603 26.2986ZM116.136 28.3947H113.037V23.3908H116.136C117.765 23.3908 118.69 24.7396 118.69 25.8922C118.69 27.0238 117.765 28.3947 116.136 28.3947ZM116.08 21.3589H110.859V35.9572H113.037V30.4267H116.08C118.495 30.4267 120.869 28.6773 120.869 25.8922C120.869 23.107 118.495 21.3589 116.08 21.3589ZM87.6082 34.3013C86.103 34.3013 84.843 33.0413 84.843 31.3107C84.843 29.5613 86.103 28.2815 87.6082 28.2815C89.0948 28.2815 90.2603 29.5613 90.2603 31.3107C90.2603 33.0413 89.0948 34.3013 87.6082 34.3013ZM90.1096 27.4348H90.0349C89.5456 26.8521 88.6055 26.3254 87.4202 26.3254C84.9364 26.3254 82.6604 28.5068 82.6604 31.3107C82.6604 34.0946 84.9364 36.2585 87.4202 36.2585C88.6055 36.2585 89.5456 35.7319 90.0349 35.1293H90.1096V35.844C90.1096 37.7451 89.0948 38.7611 87.4576 38.7611C86.1217 38.7611 85.2937 37.8012 84.9551 36.9919L83.0551 37.7825C83.6004 39.0997 85.0497 40.7171 87.4576 40.7171C90.0162 40.7171 92.1801 39.2118 92.1801 35.5439V26.6256H90.1096V27.4348ZM93.6853 35.9572H95.8679V21.3577H93.6853V35.9572ZM99.084 31.1413C99.0279 29.2227 100.571 28.2441 101.68 28.2441C102.546 28.2441 103.28 28.6762 103.524 29.2974L99.084 31.1413ZM105.857 29.4854C105.444 28.376 104.182 26.3254 101.605 26.3254C99.0466 26.3254 96.9212 28.3375 96.9212 31.292C96.9212 34.076 99.0279 36.2585 101.849 36.2585C104.126 36.2585 105.444 34.8665 105.989 34.0573L104.296 32.928C103.732 33.756 102.96 34.3013 101.849 34.3013C100.74 34.3013 99.9493 33.7934 99.4413 32.7972L106.082 30.0506L105.857 29.4854ZM52.9475 27.8494V29.956H57.9888C57.8382 31.1413 57.4435 32.0067 56.842 32.6092C56.1075 33.3426 54.9596 34.1507 52.9475 34.1507C49.8436 34.1507 47.4158 31.6493 47.4158 28.5454C47.4158 25.4403 49.8436 22.9389 52.9475 22.9389C54.6221 22.9389 55.8448 23.5975 56.7475 24.4441L58.234 22.9576C56.9728 21.7536 55.2994 20.8311 52.9475 20.8311C48.6957 20.8311 45.1211 24.2935 45.1211 28.5454C45.1211 32.7972 48.6957 36.2585 52.9475 36.2585C55.2422 36.2585 56.9728 35.5065 58.3275 34.0946C59.7194 32.7027 60.1527 30.7466 60.1527 29.1655C60.1527 28.6762 60.1153 28.2254 60.0394 27.8494H52.9475ZM65.8853 34.3013C64.38 34.3013 63.0815 33.06 63.0815 31.292C63.0815 29.5041 64.38 28.2815 65.8853 28.2815C67.3894 28.2815 68.688 29.5041 68.688 31.292C68.688 33.06 67.3894 34.3013 65.8853 34.3013ZM65.8853 26.3254C63.1375 26.3254 60.8989 28.4134 60.8989 31.292C60.8989 34.1507 63.1375 36.2585 65.8853 36.2585C68.6319 36.2585 70.8705 34.1507 70.8705 31.292C70.8705 28.4134 68.6319 26.3254 65.8853 26.3254ZM76.7608 34.3013C75.2555 34.3013 73.957 33.06 73.957 31.292C73.957 29.5041 75.2555 28.2815 76.7608 28.2815C78.266 28.2815 79.5634 29.5041 79.5634 31.292C79.5634 33.06 78.266 34.3013 76.7608 34.3013ZM76.7608 26.3254C74.0142 26.3254 71.7756 28.4134 71.7756 31.292C71.7756 34.1507 74.0142 36.2585 76.7608 36.2585C79.5074 36.2585 81.746 34.1507 81.746 31.292C81.746 28.4134 79.5074 26.3254 76.7608 26.3254Z" fill="#FFFFFE"/>
<path d="M51.5102 11.9298V14.6651C51.4178 14.8019 51.2707 14.9559 51.0689 15.1269C50.867 15.2946 50.5882 15.4417 50.2324 15.5683C49.88 15.6914 49.425 15.753 48.8673 15.753C48.4123 15.753 47.9932 15.6743 47.61 15.517C47.2303 15.3562 46.9001 15.1235 46.6196 14.819C46.3425 14.5111 46.1269 14.1382 45.973 13.7003C45.8224 13.259 45.7472 12.7595 45.7472 12.2018V11.6219C45.7472 11.0643 45.8122 10.5665 45.9422 10.1285C46.0756 9.69063 46.2706 9.31943 46.5272 9.01494C46.7838 8.70703 47.0986 8.47439 47.4715 8.31702C47.8444 8.15622 48.272 8.07582 48.7544 8.07582C49.3258 8.07582 49.803 8.17504 50.1862 8.37347C50.5728 8.56847 50.8739 8.83875 51.0894 9.18429C51.3084 9.52984 51.4486 9.92328 51.5102 10.3646H50.5198C50.4753 10.0943 50.3863 9.84801 50.2529 9.62563C50.1229 9.40325 49.9365 9.22535 49.6935 9.09192C49.4506 8.95507 49.1376 8.88665 48.7544 8.88665C48.4089 8.88665 48.1095 8.94994 47.8564 9.07653C47.6032 9.20311 47.3945 9.38443 47.2303 9.6205C47.0661 9.85656 46.9429 10.1422 46.8608 10.4775C46.7821 10.8128 46.7427 11.1908 46.7427 11.6116V12.2018C46.7427 12.6329 46.7924 13.0178 46.8916 13.3565C46.9942 13.6952 47.1396 13.9843 47.3278 14.2237C47.5159 14.4598 47.74 14.6394 48 14.7626C48.2635 14.8857 48.5543 14.9473 48.8725 14.9473C49.2248 14.9473 49.5105 14.9183 49.7295 14.8601C49.9484 14.7985 50.1195 14.7267 50.2427 14.6446C50.3658 14.559 50.4599 14.4786 50.5249 14.4034V12.7304H48.7955V11.9298H51.5102ZM57.584 14.8447V15.6504H53.6274V14.8447H57.584ZM53.8275 8.17846V15.6504H52.8371V8.17846H53.8275ZM57.0606 11.391V12.1967H53.6274V11.391H57.0606ZM57.5327 8.17846V8.98928H53.6274V8.17846H57.5327ZM61.3588 8.17846V15.6504H60.3838V8.17846H61.3588ZM63.7605 8.17846V8.98928H57.9872V8.17846H63.7605ZM67.7023 8.17846V15.6504H66.7119V8.17846H67.7023ZM71.7953 8.17846V15.6504H70.8202V8.17846H71.7953ZM74.197 8.17846V8.98928H68.4237V8.17846H74.197ZM82.8293 11.6784V12.1505C82.8293 12.7116 82.7592 13.2145 82.6189 13.6592C82.4786 14.104 82.2768 14.482 82.0134 14.7934C81.7499 15.1047 81.4335 15.3425 81.064 15.5067C80.6979 15.6709 80.2874 15.753 79.8323 15.753C79.391 15.753 78.9856 15.6709 78.6161 15.5067C78.25 15.3425 77.9318 15.1047 77.6616 14.7934C77.3947 14.482 77.1877 14.104 77.0406 13.6592C76.8935 13.2145 76.82 12.7116 76.82 12.1505V11.6784C76.82 11.1173 76.8918 10.6161 77.0355 10.1747C77.1826 9.72998 77.3896 9.35193 77.6564 9.0406C77.9233 8.72585 78.2398 8.48637 78.6058 8.32215C78.9753 8.15793 79.3807 8.07582 79.8221 8.07582C80.2771 8.07582 80.6876 8.15793 81.0537 8.32215C81.4232 8.48637 81.7397 8.72585 82.0031 9.0406C82.2699 9.35193 82.4735 9.72998 82.6138 10.1747C82.7575 10.6161 82.8293 11.1173 82.8293 11.6784ZM81.8491 12.1505V11.6681C81.8491 11.2233 81.803 10.8299 81.7106 10.4878C81.6216 10.1457 81.4899 9.85827 81.3154 9.62563C81.1409 9.39299 80.9271 9.2168 80.674 9.09705C80.4242 8.97731 80.1402 8.91744 79.8221 8.91744C79.5142 8.91744 79.2353 8.97731 78.9856 9.09705C78.7393 9.2168 78.5271 9.39299 78.3492 9.62563C78.1748 9.85827 78.0396 10.1457 77.9438 10.4878C77.848 10.8299 77.8001 11.2233 77.8001 11.6681V12.1505C77.8001 12.5987 77.848 12.9955 77.9438 13.3411C78.0396 13.6832 78.1765 13.9723 78.3544 14.2083C78.5357 14.441 78.7495 14.6172 78.9958 14.7369C79.2456 14.8567 79.5244 14.9165 79.8323 14.9165C80.1539 14.9165 80.4396 14.8567 80.6893 14.7369C80.9391 14.6172 81.1495 14.441 81.3206 14.2083C81.495 13.9723 81.6268 13.6832 81.7157 13.3411C81.8047 12.9955 81.8491 12.5987 81.8491 12.1505ZM89.7448 8.17846V15.6504H88.7492L84.9876 9.88735V15.6504H83.9971V8.17846H84.9876L88.7646 13.9569V8.17846H89.7448Z" fill="white"/>
<defs>
<linearGradient id="paint0_linear_3053_37844" x1="35.8824" y1="23.169" x2="26.3057" y2="23.169" gradientUnits="userSpaceOnUse">
<stop stop-color="#FFBC00"/>
<stop offset="1" stop-color="#FFDA03"/>
</linearGradient>
<linearGradient id="paint1_linear_3053_37844" x1="28.5558" y1="27.803" x2="16.0565" y2="38.1057" gradientUnits="userSpaceOnUse">
<stop stop-color="#E22652"/>
<stop offset="1" stop-color="#FF3A44"/>
</linearGradient>
<linearGradient id="paint2_linear_3053_37844" x1="13.9657" y1="10.3761" x2="22.2992" y2="17.7038" gradientUnits="userSpaceOnUse">
<stop stop-color="#0ED574"/>
<stop offset="1" stop-color="#07F076"/>
</linearGradient>
</defs>
</svg>
